<?xml version="1.0" encoding="UTF-8"?>
<svg version="1.1" xmlns="http://www.w3.org/2000/svg" width="1024" height="1024">
<path d="M0 0 C337.92 0 675.84 0 1024 0 C1024 337.92 1024 675.84 1024 1024 C686.08 1024 348.16 1024 0 1024 C0 686.08 0 348.16 0 0 Z " fill="#FEFEFE" transform="translate(0,0)"/>
<path d="M0 0 C6.08482648 0.00755195 12.16958788 0.00480768 18.254412 -0.00360405 C95.04497477 -0.10680464 95.04497477 -0.10680464 133.13112098 2.25713813 C133.86442256 2.30213951 134.59772414 2.34714088 135.35324699 2.39350593 C144.68610628 2.97197334 154.00385333 3.68789319 163.31862098 4.50713813 C164.54844703 4.61318367 165.77827308 4.7192292 167.04536659 4.82848823 C196.36507434 7.38471979 225.03786151 11.1160237 253.13112098 20.25713813 C253.8761991 20.4936811 254.62127723 20.73022407 255.38893348 20.97393501 C279.83204115 28.86988271 302.07546404 43.10553616 320.13112098 61.25713813 C321.52910926 62.65512641 321.52910926 62.65512641 322.95533973 64.08135688 C375.13067249 118.6384452 378.04463542 202.01651525 380.22487098 273.14385688 C380.25625399 274.14734283 380.25625399 274.14734283 380.28827101 275.17110121 C381.35059521 309.18943541 381.47262826 343.20356996 381.44480133 377.2359345 C381.441317 382.9610682 381.4509831 388.68608166 381.46730262 394.41119087 C381.97735692 577.69858295 381.97735692 577.69858295 347.13112098 642.25713813 C346.3190116 643.79047798 346.3190116 643.79047798 345.49049598 645.35479438 C323.64206584 684.75621088 286.26668101 711.59684585 243.42799598 723.94463813 C230.80653706 727.42123956 218.0383249 730.09475273 205.13112098 732.25713813 C203.93978553 732.45968208 203.93978553 732.45968208 202.7243827 732.66631782 C165.48431215 738.85897993 127.20471805 739.9811314 89.52955848 740.80010688 C88.08617795 740.83179686 88.08617795 740.83179686 86.61363822 740.86412704 C59.41376387 741.44489596 32.21107731 741.45702993 5.00612098 741.44463813 C3.02988431 741.44423782 3.02988431 741.44423782 1.01372367 741.44382942 C-225.81367913 741.39411588 -225.81367913 741.39411588 -291.86887902 691.25713813 C-292.39481652 690.8253022 -292.92075402 690.39346626 -293.46262902 689.94854438 C-311.09827493 675.42275568 -324.40304344 658.53913569 -334.86887902 638.25713813 C-335.3401925 637.34544868 -335.3401925 637.34544868 -335.82102746 636.41534126 C-360.65454029 587.5964185 -362.96128695 530.27844853 -365.69102257 476.66956794 C-365.82534731 474.09235616 -365.97189407 471.51687971 -366.12486047 468.94077766 C-366.97597746 453.89010456 -367.01729526 438.85100935 -367.00320452 423.78084242 C-367.00061458 420.1227786 -367.00303736 416.46471687 -367.00459069 412.8066529 C-367.00639788 406.65025076 -367.00404915 400.4938607 -366.99925011 394.3374604 C-366.99444968 388.1095878 -366.99440133 381.8817392 -366.99925011 375.65386665 C-367.02462283 342.17768516 -367.03909526 308.71762156 -365.86887902 275.25713813 C-365.81217034 273.53256889 -365.81217034 273.53256889 -365.75431603 271.77315986 C-365.54029087 265.28667845 -365.28850487 258.80294367 -364.99387902 252.31963813 C-364.95252831 251.39763618 -364.9111776 250.47563423 -364.86857384 249.52569282 C-361.59021604 177.72248016 -352.14131203 104.87531669 -297.61887902 53.13213813 C-232.62974906 -4.3260626 -126.96746973 0.40664946 0 0 Z " fill="#00935B" transform="translate(504.8688790202141,141.742861866951)"/>
<path d="M0 0 C224.27658228 0 224.27658228 0 242.0625 5.5625 C242.87211182 5.81298096 243.68172363 6.06346191 244.51586914 6.3215332 C259.64005688 11.2780522 272.48277896 19.10945128 284 30 C284.6703125 30.59167969 285.340625 31.18335938 286.03125 31.79296875 C304.58451512 48.87040597 314.0023996 76.75531929 315.28515625 101.4765625 C316.05401211 126.88450262 308.3571698 153.03621614 291 172 C290.52353027 172.52416504 290.04706055 173.04833008 289.55615234 173.58837891 C277.76203896 186.4058427 263.62860321 197.19943179 248 205 C247.34 205 246.68 205 246 205 C246 205.66 246 206.32 246 207 C247.20269531 207.12181641 247.20269531 207.12181641 248.4296875 207.24609375 C253.02422315 208.21627469 256.91028311 210.03070421 261.125 212.0625 C262.38860352 212.66868164 262.38860352 212.66868164 263.67773438 213.28710938 C289.45767169 225.91038903 310.34259352 246.52676656 320.23291016 273.73388672 C329.57356991 301.24443823 325.88983648 331.32457317 313.25 357.125 C297.53752353 387.95934213 270.66976501 408.62895635 238.3125 419.8125 C235.88207076 420.56489884 233.4444457 421.29446793 231 422 C229.79859375 422.35707031 228.5971875 422.71414063 227.359375 423.08203125 C157.17949865 442.35983679 63.49389851 430 0 430 C0 288.1 0 146.2 0 0 Z " fill="#FEFEFE" transform="translate(356,287)"/>
<path d="M0 0 C30.75194475 -0.09076576 61.50384579 -0.16222089 92.25589233 -0.20426132 C95.901308 -0.20926307 99.5467234 -0.21444046 103.19213867 -0.21972656 C104.28056603 -0.22130043 104.28056603 -0.22130043 105.39098182 -0.22290608 C117.08043016 -0.24022609 128.76979837 -0.27171638 140.45919947 -0.30861118 C152.48830684 -0.34625643 164.51737278 -0.36828515 176.54653662 -0.37635398 C183.28853632 -0.38131009 190.03034446 -0.39355828 196.77228737 -0.42292023 C203.14083732 -0.45042666 209.50913524 -0.45837514 215.87773895 -0.45243073 C218.19333207 -0.45351543 220.50893519 -0.46125637 222.82447624 -0.4768219 C235.13793845 -0.55541157 247.10638753 0.0202479 259.304245 1.79400635 C260.38717954 1.95128322 261.47011409 2.1085601 262.58586484 2.27060294 C296.10728964 7.60632261 327.39940697 24.88569566 348 52 C348.60457031 52.77730469 349.20914062 53.55460937 349.83203125 54.35546875 C371.00052229 82.88275802 376.58497491 119.20776947 372.22412109 153.84179688 C369.77844443 169.83618023 364.79046975 185.09529217 356.96728516 199.24511719 C356.07113478 200.87094478 355.21162616 202.51682379 354.35546875 204.1640625 C350.03497946 212.13226416 344.43339869 218.66929757 338.42480469 225.38574219 C336.22580196 227.87714144 334.11429102 230.43651895 332 233 C332.53367187 233.40089844 333.06734375 233.80179688 333.6171875 234.21484375 C358.75504348 253.39441899 376.24023198 279.51615524 382 311 C382.30357422 312.60681641 382.30357422 312.60681641 382.61328125 314.24609375 C388.56112694 351.18747548 379.8982988 392.54093834 358.1015625 423.1953125 C357.40804688 424.12085938 356.71453125 425.04640625 356 426 C355.61295898 426.53077148 355.22591797 427.06154297 354.82714844 427.60839844 C328.29461212 463.86883556 288.99149519 485.90017278 245.375 494.875 C244.46041016 495.06602295 243.54582031 495.2570459 242.60351562 495.45385742 C158.24022385 511.50122271 70.87597413 499 -15 499 C-15 341.26 -15 183.52 -15 21 C-10.05 21 -5.1 21 0 21 C0 14.07 0 7.14 0 0 Z M27 30 C27 171.9 27 313.8 27 460 C154.35989553 469.54827702 154.35989553 469.54827702 286 441 C287.54494141 440.24589844 287.54494141 440.24589844 289.12109375 439.4765625 C315.50216198 425.93053881 336.04753557 401.76930498 346 374 C355.29347507 345.04337019 354.39988202 315.80389272 340.375 288.4375 C336.25769122 280.74022614 330.89682032 274.38822202 325 268 C324.41734375 267.33613281 323.8346875 266.67226563 323.234375 265.98828125 C311.10710283 252.85040307 292.6266717 242.98832378 276 237 C275.01 237 274.02 237 273 237 C273 236.34 273 235.68 273 235 C273.680625 234.7525 274.36125 234.505 275.0625 234.25 C300.97265534 223.22440198 323.34904354 201.26202244 334.65234375 175.6328125 C345.15408122 147.32378105 344.38939551 117.57993787 332.25 89.8984375 C321.14714054 65.89179133 301.26744703 47.653012 276.60253906 38.06835938 C274.14551716 37.19654464 271.67869986 36.39345927 269.1875 35.625 C268.46763916 35.3986084 267.74777832 35.1722168 267.00610352 34.93896484 C190.06345404 12.96478472 107.01897212 30 27 30 Z " fill="#141C23" transform="translate(329,257)"/>
<path d="M0 0 C21.6253125 -0.061875 21.6253125 -0.061875 43.6875 -0.125 C48.21557373 -0.14320801 52.74364746 -0.16141602 57.40893555 -0.18017578 C62.99963379 -0.18920898 62.99963379 -0.18920898 65.6287384 -0.19088745 C67.43901049 -0.19392984 69.2492789 -0.20090316 71.05952454 -0.21115112 C92.74456007 -0.32762205 115.42111345 1.36138651 132.15625 16.96484375 C144.82331446 30.94692125 146.91182225 47.10087162 146.22216797 65.140625 C145.39981636 75.72456128 140.81251638 84.98527484 134 93 C133.03126953 94.15242187 133.03126953 94.15242187 132.04296875 95.328125 C120.50479105 107.91522794 103.87467828 114.35155967 86.94601631 115.08954048 C84.64185746 115.12220484 82.33976942 115.1237794 80.03540039 115.11352539 C78.71085799 115.11370619 78.71085799 115.11370619 77.35955715 115.11389065 C74.52223056 115.11314868 71.68497098 115.10555328 68.84765625 115.09765625 C67.08752474 115.09618461 65.32739278 115.09516527 63.56726074 115.09460449 C57.06566712 115.08937734 50.56408289 115.07541607 44.0625 115.0625 C29.521875 115.041875 14.98125 115.02125 0 115 C0 77.05 0 39.1 0 0 Z " fill="#131C23" transform="translate(446,529)"/>
<path d="M0 0 C14.52 -0.061875 29.04 -0.12375 44 -0.1875 C48.55296875 -0.21481201 53.1059375 -0.24212402 57.796875 -0.27026367 C63.4375 -0.28381348 63.4375 -0.28381348 66.09375 -0.28633118 C67.91473604 -0.29088155 69.73571413 -0.30131272 71.55664062 -0.31672668 C91.09714337 -0.47359528 110.09336983 0.52308796 125.03515625 14.81640625 C135.86118366 26.84771703 137.8743759 41.03182613 137.3828125 56.6015625 C136.51516725 72.14823744 130.42545392 85.36660527 119 96 C104.11295892 107.40039971 85.75162238 112.14485071 67.20703125 112.11352539 C66.46265305 112.11364593 65.71827484 112.11376646 64.95133972 112.11389065 C62.57169473 112.11315172 60.19213075 112.10557066 57.8125 112.09765625 C56.33138059 112.09618366 54.85026066 112.0951649 53.36914062 112.09460449 C47.91275242 112.08938833 42.45637539 112.07542709 37 112.0625 C24.79 112.041875 12.58 112.02125 0 112 C0 75.04 0 38.08 0 0 Z " fill="#131C23" transform="translate(446,355)"/>
<path d="M0 0 C7.20454947 -0.06915138 14.40793101 -0.12880303 21.61254883 -0.16479492 C24.0595288 -0.17981103 26.50648217 -0.20023005 28.95336914 -0.22631836 C32.48590692 -0.26301818 36.01808651 -0.27979877 39.55078125 -0.29296875 C40.63144363 -0.30845261 41.71210602 -0.32393646 42.82551575 -0.33988953 C52.2050831 -0.34193264 61.57272624 0.8106052 69 7 C73.71366164 11.76632825 76.04101193 15.99937221 76.4375 22.6875 C76.27437511 29.97374506 73.21990162 35.56867918 68.375 40.875 C59.61804603 46.38863768 51.30665526 47.57778419 41.11328125 47.390625 C39.93025925 47.38496521 38.74723724 47.37930542 37.52836609 47.37347412 C33.78931372 47.35127408 30.05125752 47.30110688 26.3125 47.25 C23.76108165 47.22991392 21.20964812 47.21166687 18.65820312 47.1953125 C12.43811949 47.15488297 6.22016068 47.07655582 0 47 C0 31.49 0 15.98 0 0 Z " fill="#00945C" transform="translate(477,571)"/>
<path d="M0 0 C9.7453125 -0.12375 9.7453125 -0.12375 19.6875 -0.25 C21.70963623 -0.28641602 23.73177246 -0.32283203 25.81518555 -0.36035156 C38.04055913 -0.48999568 49.18193211 -0.21851883 59.125 7.8125 C64.16989983 12.84814313 66.10470358 17.3313176 66.4375 24.4375 C66.25616868 29.72512142 65.34893047 33.82569573 62 38 C51.38387452 47.79181456 34.10837707 45.23787586 20.8125 45.125 C13.944375 45.08375 7.07625 45.0425 0 45 C0 30.15 0 15.3 0 0 Z " fill="#00945C" transform="translate(477,397)"/>
<path d="M0 0 C0 3 0 3 -1.65234375 4.99291992 C-2.78349609 6.10050659 -2.78349609 6.10050659 -3.9375 7.23046875 C-4.74960937 8.03291016 -5.56171875 8.83535156 -6.3984375 9.66210938 C-7.25695312 10.49548828 -8.11546875 11.32886719 -9 12.1875 C-10.28777344 13.4549707 -10.28777344 13.4549707 -11.6015625 14.74804688 C-13.7278365 16.83888298 -15.86078464 18.92241983 -18 21 C-18.99 20.67 -19.98 20.34 -21 20 C-20.36553955 19.410979 -20.36553955 19.410979 -19.71826172 18.81005859 C-17.76941677 16.9995428 -15.82220154 15.18728308 -13.875 13.375 C-13.20984375 12.75753906 -12.5446875 12.14007812 -11.859375 11.50390625 C-7.82394555 7.74541804 -3.87525715 3.92354696 0 0 Z " fill="#00A564" transform="translate(674,696)"/>
<path d="M0 0 C0.66 0.66 1.32 1.32 2 2 C1.96712417 4.72869407 1.43602229 7.2966618 1 10 C0.34 10 -0.32 10 -1 10 C-0.67 6.7 -0.34 3.4 0 0 Z " fill="#0F1418" transform="translate(680,608)"/>
<path d="M0 0 C-1.49097658 3.7952131 -3.75700849 5.61042731 -7 8 C-7.66 7.67 -8.32 7.34 -9 7 C-7.88121617 5.82737096 -6.75476949 4.66204862 -5.625 3.5 C-4.68527344 2.52546875 -4.68527344 2.52546875 -3.7265625 1.53125 C-2 0 -2 0 0 0 Z " fill="#24282B" transform="translate(647,460)"/>
</svg>
